<?xml version="1.0" encoding="utf-8"?>
<!-- Generator: Adobe Illustrator 22.0.1, SVG Export Plug-In . SVG Version: 6.00 Build 0)  -->
<svg version="1.1" id="Layer_1" xmlns="http://www.w3.org/2000/svg" xmlns:xlink="http://www.w3.org/1999/xlink" x="0px" y="0px"
	 viewBox="0 0 1000 480" style="enable-background:new 0 0 1000 480;" xml:space="preserve">
<style type="text/css">
	.st0{fill:#D98D41;}
</style>
<path class="st0" d="M982.4,33.8c-4.1,0-5.9,1.8-11.1,6.4c-3.5,3.5-8.8,8.2-18.2,8.2c-4.7,0-18.7-3.5-25.1-5.3
	c-31.6-8.8-103.5-27.5-175.5-27.5c-50.4,0.5-102.2,10.1-141,40.7c-14.1-5.5-28.8-9.6-43.6-9.6c-51.4,0-91.2,47.4-91.2,83.1
	c0,28.7,22.8,40.9,32.2,40.9c4.1,0,4.1-2.9,4.1-3.5c0-3.5-4.7-4.7-7.6-5.2c-19.3-4.1-22.2-20.5-22.2-31c0-32.2,28.1-52.6,68.4-52.6
	c11.5,0,23.1,1.5,34.7,3.7c-15.7,20.5-24.4,44.4-24.4,68.3c0,3.4,0.2,6.8,0.6,10c-14.3,21.8-25.3,42.9-35,61.9
	c-5.9-0.7-11.9-1.1-18.2-1.1c-23,0-44.2,4.2-62.7,11.8c1.3-22.8,1.8-45.7,2.7-68.5c1.2-29.2,4.1-107,25.1-126.3
	c2.9-2.9,7-4.7,11.1-6.4c2.9-0.6,5.3-1.2,5.3-4.7c0-4.7-4.7-5.9-8.8-5.9c-7.6,0-23.4,4.7-36.3,13.4
	C394.3,66.6,363.9,145,342.2,199.9c-44.4,112.3-53.8,135.1-83.6,174.3c-28.1,35.7-49.1,47.4-53.8,47.4c-1.2,0-2.3-0.6-2.3-1.7
	c0-1.2,4.7-7,6.4-8.8c15.8-18.7,32.2-38.6,51.5-76c33.9-69,41.5-133.4,41.5-162.6c0-88.9-54.4-143.9-130.5-143.9
	c-39.8,0-74.9,15.8-99.4,40.4c-31.6,32.2-32.2,63.2-32.8,86C27.5,168.4,10,190,10,227.4c0,56.7,45,88.9,79.5,88.9
	c32.2,0,47.4-26.9,47.4-32.7c0-2.9-2.3-4.1-3.5-4.1c-2.9,0-3.5,2.3-4.7,4.1c-12.9,24-32.2,24-37.4,24c-35.1,0-75.5-32.2-75.5-83.6
	c0-28.1,10.5-43.3,24-62.6c2.9,15.8,7,39.2,33.4,64.9c22.2,22.2,52,34.5,80.7,34.5c40.4,0,67.3-25.2,67.3-60.8
	c0-52.1-54.4-81.3-98.9-81.3c-40.4,0-62.6,18.1-76,28.7c1.2-18.7,3.5-44.4,27.5-67.8c18.7-18.7,43.9-26.9,66.1-26.9
	c71.9,0,127.5,67.3,127.5,166.1c0,104.7-56.7,201.2-110,215.8c-5.8,1.7-12.3,2.3-19.3,2.9c-2.9,0.6-7,0-7,4.7
	c0,4.7,12.9,15.2,20.5,15.2c7,0,28.7-9.4,37.4-13.5c21.1-9.9,43.9-28.7,57.9-42.7c58.5-59.7,94.2-146.2,136.3-252.7
	c15.2-38.6,32.2-80.1,66.1-108.2c1.7-1.8,7.6-6.4,11.1-6.4c0.6,0,2.3,0,2.3,1.8c0,1.8-0.6,2.3-1.8,3.5c-4.1,4.7-17,21.1-28.1,45
	c-22.2,49.1-27.5,109.4-29.2,160.8c-0.1,5.4-0.2,10.8-0.3,16.1c-18.8,19.2-29.7,44.3-29.7,72.8c0,19.3,5.8,38.3,17.2,55.2
	c-7,24.7-18.1,46.3-35.7,58.8c-1.7,1.2-4.1,2.3-6.4,2.9c-4.7,2.4-6.4,2.4-6.4,5.3c0,6.4,15.8,8.2,17,8.2c7.6,0,11.7-2.3,34.5-22.8
	c3.5-3.2,12.8-12.3,24.3-24.2c27.7,20.7,68.2,34.2,121.7,34.2c131.6,0,179.6-70.2,199.4-98.3c14.6-22.2,27.5-45.6,39.8-70.2
	c14.6-29.8,28.1-60.2,42.7-90.1c33.9-66.7,69.6-111.7,125.8-126.4c5.8-1.7,12.3-2.9,18.7-3.5c9.4,0,12.9-0.6,18.1-5.3
	c4.1-4.1,5.9-9.4,5.9-14.6C990,37.9,987.7,33.8,982.4,33.8z M122.3,124.5c53.8,0,92.4,38,92.4,78.4c0,29.2-22.2,46.2-55.6,46.2
	c-28.1,0-60.2-11.7-83.1-33.9c-24-22.2-27.5-43.9-29.8-60.3C60.9,142.6,81.9,124.5,122.3,124.5z M818.3,53.7c0,2.9,0,11.7-11.1,23.4
	c-18.1,17.5-40.4,19.3-57.9,19.3c-5.4,0-10.4-0.2-15.2-0.5c-5.1-1.9-10.8-3-17.1-3c-1.8,0-3.7,0.1-5.5,0.3
	c-21-3.7-38.2-10.4-58-18.5c9.6-8.8,17.9-16.2,28.5-23.2c31.5-13.1,69.4-21.3,112.8-21.3c2.1,0,4.1,0.1,6.1,0.1
	C812.4,36,818.3,44.5,818.3,53.7z M635.2,93.5c15.9,3.7,31.3,7.2,45.9,10c-21.3,12.3-38.5,33.7-38.5,55.5
	c0,19.3,15.2,26.3,19.9,26.3c4.7,0,4.7-2.9,4.7-4.1c0-2.3-0.6-2.9-8.2-5.8c-7.6-2.9-10-10.5-10-17.6c0-21.8,18.9-42.4,40.2-52.8
	c16.6,2.9,32.1,4.8,46,4.8c3.1,0,6.2-0.1,9.1-0.3c6.6,7,10.5,16.8,10.5,28.4c0,39.2-51.5,93.6-106.5,93.6
	c-34.7,0-67.1-23.5-67.8-60.3C602.6,133.7,610.6,123.5,635.2,93.5z M499.8,311.4c1.4-0.6,2.5-1.7,2.5-3.3c0-0.2,0-0.4,0-0.7
	c12.2-20.1,24.9-42.6,39.4-68c44.2,2.9,65.3,27.7,65.3,52.9c0,37.4-48.6,73.7-90.1,73.7c-19.6,0-33.5-8.3-40.8-18.2
	C484,336.5,491.8,324.4,499.8,311.4z M470.1,331.7c0.1-8.5,4.3-14.4,9.8-17.4C476.5,320.4,473.3,326.1,470.1,331.7z M518.4,239.9
	c-13.1,25.7-23.9,46.9-33.5,65c-9.8,3.2-19.5,11.8-19.5,26.6c0,2.4,0.3,4.7,0.8,6.9c-15.2,25.6-29.8,45.5-50.2,67.7
	c-4.4-4.2-8.4-8.7-11.8-13.7c27-53.3,35.7-98.4,39.2-124.3C465,253.1,491.2,242.7,518.4,239.9z M391.7,352
	c0-13.1,3.7-25.9,10.1-38.1c-1,18.9-3,39.2-7,58.6C392.9,366.2,391.7,359.4,391.7,352z M386.1,433.9c-1.8,0-2.4-1.2-2.4-2.9
	c0-0.6,0.6-1.2,5.9-10.5c3.1-6.7,7-13,10.3-19.7c3.3,3.7,7,7.3,11,10.7C402.9,419.8,389.5,433.9,386.1,433.9z M933.2,61.9
	c-75.5,29.2-122.8,105.9-163.8,171.9c-59.1,96.5-94.8,154.4-148.6,185.4c-28.1,15.8-66.1,25.1-94.7,25.1
	c-30.8,0-74.2-9.5-103.4-32.3c12.4-13.1,26.4-28.7,38.1-43.8c4-5,7.8-10.3,11.7-15.6c11.6,15.8,35.2,24.9,57.1,24.9
	c47.9,0,85.4-40.4,85.4-79.5c0-33.2-25.9-60.9-65.9-72c8.4-14.8,15.6-27.4,21.7-38c16.8,33.1,54.6,52.1,88.7,52.1
	c59.7,0,106.4-50.3,106.4-94.2c0-13.1-4.6-27-13.6-37.3c47.9-5.3,72.9-32.5,72.9-54.6c0-11.7-5.9-18.1-8.8-21.6
	c-0.6-0.6-1.3-1.2-2.1-1.8c40.2,2.1,80.1,10.1,118.3,21.7c2.9,0.6,8.2,1.8,8.2,4.1C940.9,59,936.8,60.7,933.2,61.9z"/>
</svg>
