<svg version="1" xmlns="http://www.w3.org/2000/svg" width="1333.333" height="1333.333" viewBox="0 0 1000.000000 1000.000000"><path d="M0 500v500h1000V0H0v500zm785-206.6c26.9 4.1 80.7 16.1 113.9 25.5 15.8 4.5 19.4 4.9 24.9 2.5 10-4.2 24.7-9.4 26.8-9.4 3.2 0 5 3.5 3.2 6.1-.7 1.1-8.4 5-17.8 9-41.9 17.7-71.7 35-89.6 52.1-15.9 15.2-25.6 29.6-36.2 53.5-18.5 41.7-24.1 54.5-31.3 71.3-18.1 41.9-37.2 77.3-52.9 98.2-9.8 13-33.1 37.3-45.2 47.1-33.4 27-71.9 42.3-117.3 46.8-17.6 1.7-58.4.6-75.3-2-22.9-3.5-42.8-9.7-56.7-17.6-4.3-2.5-8.4-4.5-9-4.5-.7 0-2 .9-3 2-3.1 3.4-20.8 16.7-29.2 21.9-16.2 10-23.3 12.7-26.1 9.9-2.5-2.5-1.3-5.6 3.7-9.2 10.5-7.7 21.8-22 29.7-37.4l3.7-7.3-5.1-9.7c-8-15.3-9.7-22.6-9.7-41.7.1-18.3 1.9-27.3 8.6-42.9 6.3-14.7 19.7-35.6 30.7-48l3.4-3.8-.9-17.2c-1.3-28.1-.9-62.4 1.1-75.9 5-34.7 19-69.1 37.8-93 1.6-2 2.6-3.7 2.1-3.7s-4 2.6-7.9 5.7c-37.8 31-72.1 92.6-94.9 170.3-5 16.7-12.2 36.2-20.6 55-30.6 68.5-73.9 117.3-121.2 136.4-18.1 7.3-43.6 11.6-44.5 7.4-.2-1.1 1.9-2.8 7.4-5.8C247.5 651.9 293 550.9 293 451c0-53.7-7.4-79.3-29.6-103-14.7-15.5-35.9-28.9-51.9-32.5-9.1-2.1-24.1-2.1-33.4 0-38.5 8.9-79.8 49.5-91.6 90.1-3.8 13.2-3.6 13.6 4.2 6.4 9.8-9 19.4-15.6 30.8-21.1 14.6-7 20.5-8.3 36.5-8.3 11.8 0 14.6.4 22.3 2.7 19.2 5.9 37.7 17.7 55.2 35.3 18.5 18.6 27.4 36 28.3 55.5 1.1 24.8-12.2 41.8-37.8 48.5-8.7 2.3-27.5 2.3-40-.1-21.2-3.9-54.9-17.6-71.5-29C93.6 481.2 81 465.2 75.4 446l-2.2-7.4-5 7.7c-9.2 14-13.6 25.1-15.3 38.6-2.9 21.7 6.9 41.4 29 58.2 8 6.1 22.7 13.3 29.9 14.8 17.4 3.6 34.5-1.9 48.2-15.5 6-5.9 7-6.4 7-3.6 0 2.2-9.6 11.7-15.9 15.6-11.8 7.5-26.9 10.2-40.3 7.2-24.6-5.5-52.1-28.9-59.8-50.9-3.4-9.5-3.8-23.8-1.1-35.2 2.6-10.9 9.9-26.2 17.5-36.8 5.6-7.8 5.6-7.8 5.6-15.2 0-31.9 25.1-73.8 60-100.1 10.5-7.9 29.8-17.7 40.5-20.5 23.4-6.1 50.1-2 71.4 10.9 20.5 12.4 37.3 28.9 48.3 47.3 9 15.3 19 45.4 21.8 65.9 1.5 10.7 1.5 35.4 0 49-6.2 58.5-28.4 118-59.6 160.1-7.2 9.8-27 30.6-35.9 37.8l-4 3.3 6-3.3c16.6-9 29.2-18.7 43.5-33.5 34.7-35.9 65.7-94.7 84.4-159.9 13.8-48.4 38.2-96.9 65.4-130.1 19.9-24.4 42.3-41.9 63.1-49.4 9-3.3 12.4-3.5 12.9-.9.2.9-3.6 7.5-8.4 14.5-13.8 20.4-24.4 43.6-29.9 65.9-5.5 22.2-6.9 52.6-4 84.7.9 10.6 1.8 19.4 1.9 19.6.2.1 4-2 8.5-4.8 16.2-9.7 29.4-13.4 47.1-13.3 12.9.1 22.2 1.8 33.6 6.2l7.5 2.9 1.3-2.1c.8-1.2 3.9-6.7 7.1-12.2l5.7-10-1.1-7.4c-1.9-12.4-2.4-32.9-1.2-43.9 2-18.2 9.5-33.1 25.2-49.6l8-8.5-4.8-.8c-2.6-.4-12.4-.8-21.8-.8-14.6 0-18.1.4-24.9 2.3-15.6 4.5-26.7 11.5-36 22.8-19.1 23.1-18 45 3 60.2 3.5 2.6 5.9 4.9 5.3 5.1-2.2.7-14.3-6.3-19.3-11.4-6.2-6.2-9.2-11.9-10.7-20.3-1.4-8.1.6-18.4 5.6-28.4 4.9-9.8 9.2-15.4 17.7-23.3 19.5-18.1 49.5-23.4 86.4-15.4l9.2 2 9.4-6.2c28.3-18.6 62.2-30.5 100.8-35.5 14.1-1.8 58.5-1.2 73 1z"/><path d="M738.5 304.7c-40.5 3.6-75.1 13.9-105.2 31.1-4.6 2.6-8.3 4.9-8.3 5.2 0 1 38.7 20 42.9 21.1 13.9 3.4 43.6 4 67 1.4 35.7-4.1 53.9-12 60.4-26.4 2.6-5.8 2.8-18 .3-26.2l-1.7-5.6-9.1-.7c-9.2-.6-38.9-.6-46.3.1z"/><path d="M798.9 309.8c11 21.6 3.4 42.8-19.2 53.6-6.9 3.3-21 7.6-25 7.6-1.5 0-.8 1.2 3.2 5.6 12 13.1 11.9 31.5-.2 54.9-8.9 17.1-27.2 37.5-45.3 50.3-9.5 6.8-25 14.8-35.1 18.1-25.1 8.3-59.6 6.1-82.8-5.3-10.8-5.4-20.6-14.6-25.9-24.5l-3.4-6.3-4.5 8.3-4.6 8.3 7.2 4.6c20 12.9 39.5 32.6 47.2 47.9 5.4 10.8 6.8 17 6.3 28.1-.3 9.1-.7 10.4-4.5 18.2-8.6 17.3-27.1 31.1-50.9 38-10.6 3.1-35 3.3-45.9.4-10.5-2.8-20.8-7.9-26.3-13l-4.9-4.6-8.5 11.3c-8.1 10.7-24.2 30-36.4 43.4l-5.6 6.2 11.4 5.5c22.3 10.9 46.2 15.5 84.8 16.3 18.9.4 27.7.2 38.5-1.1 58.9-6.8 107.2-35 139-81.1 18.9-27.4 28.8-46.1 50-94 14.5-32.8 34.9-74.1 43.7-88.8 9.7-16.1 18.2-27.1 29.8-38.8 18.2-18.3 35.5-30.3 64.8-44.8l15.4-7.5-11.4-2.8c-27.5-6.7-53.7-11.5-85.2-15.8-19.3-2.6-18-2.8-15.7 1.8z"/><path d="M616.1 350.7c-2.6 7.5-22.1 52.2-30.1 69.3-8.8 18.9-9.1 20-6.4 30.2 4.8 19 17.8 30.6 39.7 35.8 11.3 2.7 29.6 4 39.7 2.9 34.6-3.9 75.2-33.8 91.5-67.4 5.2-10.9 6.9-17.8 6.2-25.6-.7-8.1-4-13.5-11-18.4l-5.8-3.9-15.7-.8c-8.6-.4-19.6-1.2-24.4-1.8-7.2-.9-10-.8-16 .6-15.7 3.5-27.6 11.6-32.7 22.4-5.1 10.9-3.9 29.6 3 44.9 3.2 7.1 3.2 7.1 2 7.1-1.4 0-7-13.1-9.1-21.5-6.8-26.6 3.7-46 29.5-54.5l4-1.4-6.5-1.3c-9.2-1.9-14.7-3.8-29.5-10.3-10-4.5-25-10-26.9-10-.1 0-.8 1.7-1.5 3.7zM606.6 354.5c-10.3 8.9-18.7 19.2-24.1 30-4.4 8.6-4.7 9.6-5.5 21-1.2 15.4-1.2 18.1-.1 16.9 2.4-2.5 38.8-74.4 37.7-74.4-.2 0-3.7 2.9-8 6.5zM143.1 389c-17.5 3.7-39.8 16.8-55 32.4l-5.5 5.5 1.2 8.5c3.5 26.2 23.2 48 59.1 65.3 13.8 6.7 34.5 13.7 46.5 15.8 11.2 1.9 27.2 1.9 35.5 0 13.8-3.3 24.8-12 29.2-23.3 3.4-8.4 3.2-21.9-.4-32.7-4.7-14.4-16.3-30.5-30.7-43.1-14.9-12.8-30.1-21.9-44.5-26.4-7.9-2.5-27.7-3.6-35.4-2zM496 486.5c-13.2 2.8-24.3 7.7-36.5 16.2l-7 4.8-.6 11.5c-2 35.9-15.7 94.6-28.9 123.7-3.5 7.6-3.4 7.3-1.7 7.3 3.7 0 40.1-44.4 64.7-79 19.6-27.5 52.9-79.4 51.8-80.5-.3-.3-4-1.4-8.4-2.5-10.3-2.7-25-3.4-33.4-1.5zM540.5 509.8c-11.6 21.2-30.4 52.2-43.4 71.5l-11.4 16.9 2.9 2.8c4.8 4.8 13.9 9.7 22.7 12.1 7.1 2.1 10.3 2.4 23.7 2.3 14.2 0 16.2-.2 24-2.8 30-9.8 49.1-30.1 49-52-.1-15.6-11.7-33-32.5-48.6-7.8-5.9-25.4-17.1-26.7-17-.1.1-3.9 6.7-8.3 14.8zM419.4 547.2c-3.2 5.1-7.2 12.5-9 16.3-9.1 19.7-10.8 45.5-4.3 63.1 1.5 3.8 2.4 5.2 2.9 4.3 1.4-2.6 6.9-25.3 9-36.9 2-11.6 7.9-56 7.4-56-.2 0-2.9 4.2-6 9.2z"/></svg>